HIERARCHY
ROOT Hips
{
	OFFSET 0.000000 1.471914 24.280096
	CHANNELS 6 Xposition Yposition Zposition Xrotation Yrotation Zrotation
	JOINT Spine
	{
		OFFSET 0.000000 0.900110 1.860670
		CHANNELS 6 Xposition Yposition Zposition Xrotation Yrotation Zrotation
		JOINT Spine1
		{
			OFFSET 0.000000 0.400320 2.270309
			CHANNELS 6 Xposition Yposition Zposition Xrotation Yrotation Zrotation
			JOINT Spine2
			{
				OFFSET 0.000000 0.200920 2.296560
				CHANNELS 6 Xposition Yposition Zposition Xrotation Yrotation Zrotation
				JOINT Spine3
				{
					OFFSET 0.000000 0.000000 2.305330
					CHANNELS 6 Xposition Yposition Zposition Xrotation Yrotation Zrotation
					JOINT Neck
					{
						OFFSET 0.000000 -0.864490 6.051487
						CHANNELS 6 Xposition Yposition Zposition Xrotation Yrotation Zrotation
						JOINT Head
						{
							OFFSET 0.000000 -0.550429 3.121674
							CHANNELS 6 Xposition Yposition Zposition Xrotation Yrotation Zrotation
							End Site
							{
								OFFSET 0.000000 0.000000 3.731750
							}
						}
					}
					JOINT RightShoulder
					{
						OFFSET -0.788280 -1.313800 4.256718
						CHANNELS 6 Xposition Yposition Zposition Xrotation Yrotation Zrotation
						JOINT RightArm
						{
							OFFSET -3.915130 0.000000 0.000000
							CHANNELS 6 Xposition Yposition Zposition Xrotation Yrotation Zrotation
							JOINT RightForeArm
							{
								OFFSET -6.914910 0.000000 0.000000
								CHANNELS 6 Xposition Yposition Zposition Xrotation Yrotation Zrotation
								JOINT RightHand
								{
									OFFSET -6.096219 0.000000 0.000000
									CHANNELS 6 Xposition Yposition Zposition Xrotation Yrotation Zrotation
									JOINT RightHandEnd
									{
										OFFSET -1.749950 0.000000 0.000000
										CHANNELS 6 Xposition Yposition Zposition Xrotation Yrotation Zrotation
										End Site
										{
											OFFSET -1.749950 0.000000 0.000000
										}
									}
									JOINT RightHandThumb1
									{
										OFFSET -0.699980 -1.166630 -0.466648
										CHANNELS 6 Xposition Yposition Zposition Xrotation Yrotation Zrotation
										End Site
										{
											OFFSET -1.690319 -0.452920 0.000000
										}
									}
								}
							}
						}
					}
					JOINT LeftShoulder
					{
						OFFSET 0.788280 -1.313800 4.256718
						CHANNELS 6 Xposition Yposition Zposition Xrotation Yrotation Zrotation
						JOINT LeftArm
						{
							OFFSET 3.915130 0.000000 0.000000
							CHANNELS 6 Xposition Yposition Zposition Xrotation Yrotation Zrotation
							JOINT LeftForeArm
							{
								OFFSET 6.914910 0.000000 0.000000
								CHANNELS 6 Xposition Yposition Zposition Xrotation Yrotation Zrotation
								JOINT LeftHand
								{
									OFFSET 6.096219 0.000000 0.000000
									CHANNELS 6 Xposition Yposition Zposition Xrotation Yrotation Zrotation
									JOINT LeftHandEnd
									{
										OFFSET 1.749950 0.000000 0.000000
										CHANNELS 6 Xposition Yposition Zposition Xrotation Yrotation Zrotation
										End Site
										{
											OFFSET 1.749950 0.000000 0.000000
										}
									}
									JOINT LeftHandThumb1
									{
										OFFSET 0.699980 -1.166630 -0.466648
										CHANNELS 6 Xposition Yposition Zposition Xrotation Yrotation Zrotation
										End Site
										{
											OFFSET 1.690319 -0.452920 0.000000
										}
									}
								}
							}
						}
					}
				}
			}
		}
	}
	JOINT RightUpLeg
	{
		OFFSET -2.338570 -0.252550 -0.551512
		CHANNELS 6 Xposition Yposition Zposition Xrotation Yrotation Zrotation
		JOINT RightLeg
		{
			OFFSET 0.000000 0.000000 -10.744959
			CHANNELS 6 Xposition Yposition Zposition Xrotation Yrotation Zrotation
			JOINT RightFoot
			{
				OFFSET 0.000000 -0.000001 -10.930849
				CHANNELS 6 Xposition Yposition Zposition Xrotation Yrotation Zrotation
				JOINT RightToeBase
				{
					OFFSET 0.000000 -4.087269 -1.487650
					CHANNELS 6 Xposition Yposition Zposition Xrotation Yrotation Zrotation
					End Site
					{
						OFFSET 0.000000 -1.891870 0.000000
					}
				}
			}
		}
	}
	JOINT LeftUpLeg
	{
		OFFSET 2.338570 -0.252550 -0.551512
		CHANNELS 6 Xposition Yposition Zposition Xrotation Yrotation Zrotation
		JOINT LeftLeg
		{
			OFFSET 0.000000 0.000000 -10.744959
			CHANNELS 6 Xposition Yposition Zposition Xrotation Yrotation Zrotation
			JOINT LeftFoot
			{
				OFFSET 0.000000 -0.000001 -10.930849
				CHANNELS 6 Xposition Yposition Zposition Xrotation Yrotation Zrotation
				JOINT LeftToeBase
				{
					OFFSET 0.000000 -4.087269 -1.487650
					CHANNELS 6 Xposition Yposition Zposition Xrotation Yrotation Zrotation
					End Site
					{
						OFFSET 0.000000 -1.891870 0.000000
					}
				}
			}
		}
	}
}
MOTION
Frames: 5
Frame Time: 0.041667
-0.000003 26.556555 40.371727 -15.490534 5.732499 -14.450705 0.000002 0.900103 1.860673 30.509058 -4.894041 -1.781541 -0.000002 0.400313 2.270314 -0.000005 0.000001 0.000001 0.000013 0.200940 2.296572 0.000000 0.000000 0.000002 0.000004 -0.000015 2.305327 0.000009 0.000001 -0.955971 -0.000003 -0.864470 6.051505 -0.587976 -5.653593 176.245532 0.000002 -0.550422 3.121677 0.000001 0.000000 0.000002 -0.788279 -1.313774 4.256753 -125.769956 46.306152 -56.116325 -3.915123 -0.000006 0.000007 -0.000003 -0.000001 -0.000001 -6.914886 -0.000000 0.000005 0.000012 0.000004 -24.854044 -6.096217 0.000008 0.000005 0.000020 0.000073 -0.000005 -1.749963 0.000001 -0.000007 -0.000003 0.000001 0.000003 -0.700008 -1.166628 -0.466641 0.000004 0.000001 -0.000000 0.788269 -1.313795 4.256738 -124.145846 -57.869850 54.817995 3.915145 -0.000007 0.000007 0.000000 0.000002 -0.000002 6.914894 0.000009 -0.000018 0.000010 0.000001 22.502734 6.096228 0.000006 -0.000010 0.000038 -0.000081 -0.000017 1.749941 0.000007 -0.000004 -0.000001 -0.000000 0.000001 0.699972 -1.166612 -0.466668 0.000003 -0.000003 -0.000005 -2.338574 -0.252552 -0.551509 23.248658 -3.434461 -1.378431 0.000007 -0.000002 -10.744962 11.385924 5.371628 -1.303592 0.000004 0.000008 -10.930865 0.000002 -0.000003 -0.000006 0.000006 -4.087268 -1.487648 0.000003 0.000001 0.000004 2.338571 -0.252555 -0.551483 25.104188 -1.424197 -1.482515 -0.000005 -0.000006 -10.744945 10.766639 -0.281348 -0.858561 -0.000002 0.000014 -10.930848 -0.000012 -0.000001 -0.000001 0.000003 -4.087261 -1.487658 0.000005 -0.000000 0.000003 
-0.000002 26.556553 40.371704 -15.553562 5.610396 -14.266816 0.000003 0.900099 1.860680 30.296216 -4.890433 -1.759060 -0.000003 0.400314 2.270317 -0.000004 0.000001 0.000002 0.000013 0.200944 2.296576 0.000001 -0.000001 -0.000002 0.000002 -0.000015 2.305327 0.000010 0.000000 -0.910909 -0.000005 -0.864470 6.051500 -0.643427 -5.914562 176.183350 0.000001 -0.550422 3.121677 -0.000002 0.000001 0.000003 -0.788279 -1.313770 4.256744 -124.766410 44.716497 -56.245180 -3.915116 -0.000007 0.000004 -0.000004 -0.000001 -0.000001 -6.914888 -0.000003 0.000001 0.000013 0.000004 -26.100315 -6.096217 0.000010 0.000008 0.000019 0.000073 -0.000005 -1.749961 0.000006 -0.000000 -0.000001 0.000001 0.000003 -0.700007 -1.166625 -0.466637 0.000000 0.000003 -0.000002 0.788271 -1.313792 4.256732 -125.816224 -58.894870 53.039977 3.915145 -0.000005 0.000007 -0.000000 -0.000001 0.000001 6.914898 0.000018 -0.000018 0.000008 -0.000001 22.385931 6.096225 0.000003 -0.000007 0.000036 -0.000077 -0.000017 1.749945 0.000006 0.000004 -0.000007 0.000000 0.000001 0.699972 -1.166613 -0.466669 0.000008 -0.000003 -0.000006 -2.338573 -0.252553 -0.551500 23.547740 -3.384473 -1.386259 0.000005 -0.000006 -10.744961 11.383281 5.321948 -1.288198 0.000001 0.000011 -10.930865 -0.000002 -0.000003 -0.000002 0.000008 -4.087274 -1.487650 0.000007 0.000001 0.000004 2.338572 -0.252557 -0.551477 25.092491 -1.409845 -1.472322 -0.000004 -0.000004 -10.744945 10.615273 0.051437 -0.839878 -0.000001 0.000007 -10.930844 -0.000010 -0.000001 -0.000003 0.000005 -4.087262 -1.487650 0.000003 0.000000 -0.000002 
-0.000012 26.556551 40.371696 -15.493799 5.350548 -14.086505 0.000003 0.900103 1.860684 30.042273 -4.757666 -1.829448 -0.000002 0.400315 2.270313 -0.000005 0.000000 -0.000000 0.000012 0.200939 2.296570 0.000001 -0.000001 -0.000002 0.000004 -0.000016 2.305331 0.000010 0.000001 -0.684163 -0.000005 -0.864473 6.051492 -0.533668 -5.991467 176.235410 0.000002 -0.550422 3.121681 0.000002 0.000001 -0.000001 -0.788280 -1.313771 4.256741 -123.875412 42.981154 -56.572480 -3.915121 -0.000003 0.000007 -0.000001 -0.000001 -0.000002 -6.914884 0.000000 0.000001 0.000008 0.000001 -27.208089 -6.096218 0.000007 0.000008 0.000019 0.000072 -0.000004 -1.749971 0.000002 -0.000008 -0.000002 -0.000002 0.000005 -0.700005 -1.166628 -0.466640 0.000000 -0.000001 0.000001 0.788268 -1.313797 4.256731 -127.577784 -59.000403 50.900824 3.915144 -0.000008 0.000007 -0.000002 0.000000 0.000002 6.914903 0.000014 -0.000018 0.000012 -0.000002 22.653190 6.096228 0.000007 -0.000003 0.000037 -0.000081 -0.000017 1.749938 0.000005 -0.000004 -0.000004 -0.000001 0.000000 0.699967 -1.166616 -0.466668 0.000005 0.000000 -0.000008 -2.338573 -0.252551 -0.551493 23.301088 -3.199783 -1.438493 0.000003 -0.000003 -10.744967 11.584925 5.493617 -1.305339 0.000002 0.000013 -10.930864 0.000002 -0.000002 -0.000005 0.000007 -4.087271 -1.487652 0.000004 0.000000 0.000004 2.338572 -0.252551 -0.551470 24.866178 -1.358459 -1.529815 -0.000005 -0.000003 -10.744945 10.731574 0.312412 -0.868275 -0.000002 0.000008 -10.930844 -0.000012 -0.000002 -0.000002 0.000002 -4.087260 -1.487652 -0.000002 -0.000000 0.000001 
-0.000014 26.556543 40.371700 -15.461921 5.083337 -13.971852 0.000002 0.900099 1.860679 29.747168 -4.598326 -1.943053 -0.000002 0.400315 2.270314 -0.000005 0.000001 0.000003 0.000011 0.200945 2.296570 0.000000 -0.000000 -0.000002 0.000003 -0.000015 2.305330 0.000010 0.000002 -0.417336 -0.000003 -0.864468 6.051504 -0.477141 -5.975657 175.862768 0.000001 -0.550421 3.121689 0.000000 -0.000000 0.000002 -0.788277 -1.313769 4.256752 -122.877425 41.889427 -56.950541 -3.915118 -0.000009 0.000007 -0.000003 -0.000000 -0.000003 -6.914891 -0.000005 0.000009 0.000009 0.000002 -27.724952 -6.096214 0.000005 0.000001 0.000014 0.000072 -0.000006 -1.749959 0.000006 -0.000003 0.000002 0.000001 0.000001 -0.700006 -1.166628 -0.466633 0.000002 0.000001 -0.000001 0.788270 -1.313789 4.256739 -128.976129 -59.038871 48.943855 3.915145 -0.000008 0.000007 -0.000002 0.000003 -0.000002 6.914901 0.000012 -0.000015 0.000008 0.000002 22.536066 6.096225 0.000009 -0.000005 0.000032 -0.000082 -0.000018 1.749940 0.000005 0.000001 -0.000005 -0.000001 0.000001 0.699972 -1.166612 -0.466664 0.000008 -0.000003 -0.000008 -2.338574 -0.252553 -0.551504 23.266249 -2.751147 -1.538766 0.000005 -0.000003 -10.744967 11.349096 5.141150 -1.238162 0.000002 0.000011 -10.930863 0.000003 -0.000002 -0.000006 0.000006 -4.087265 -1.487646 -0.000003 0.000001 0.000003 2.338571 -0.252555 -0.551475 24.845249 -1.194447 -1.637706 -0.000004 -0.000004 -10.744945 10.596088 0.588325 -0.870354 -0.000002 0.000016 -10.930839 -0.000014 -0.000001 -0.000003 0.000002 -4.087264 -1.487654 0.000000 0.000001 0.000002 
-0.000016 26.556547 40.371696 -15.503768 5.231610 -13.981710 0.000002 0.900104 1.860675 29.786510 -4.559877 -1.910380 -0.000002 0.400311 2.270306 -0.000005 0.000000 0.000003 0.000012 0.200940 2.296574 0.000000 -0.000000 -0.000002 0.000003 -0.000016 2.305327 0.000009 0.000003 -0.181338 -0.000003 -0.864466 6.051502 -0.301121 -6.088209 175.338688 0.000001 -0.550422 3.121689 0.000000 0.000001 0.000001 -0.788280 -1.313769 4.256748 -122.573468 42.255638 -57.097994 -3.915118 -0.000008 0.000007 -0.000005 0.000000 -0.000002 -6.914887 -0.000003 0.000005 0.000011 0.000001 -27.611699 -6.096218 0.000003 -0.000003 0.000019 0.000072 -0.000004 -1.749972 0.000002 -0.000007 0.000000 -0.000001 0.000003 -0.700010 -1.166630 -0.466637 0.000004 0.000000 -0.000001 0.788272 -1.313790 4.256734 -132.309971 -60.517983 45.551833 3.915149 -0.000008 0.000011 0.000003 0.000001 0.000002 6.914894 0.000013 -0.000011 0.000012 -0.000002 22.626349 6.096230 0.000006 -0.000001 0.000036 -0.000075 -0.000020 1.749939 0.000005 0.000000 -0.000010 0.000000 0.000001 0.699964 -1.166614 -0.466669 0.000003 -0.000005 -0.000007 -2.338573 -0.252549 -0.551510 23.317436 -2.869494 -1.514766 0.000006 -0.000003 -10.744959 11.363072 5.123802 -1.250188 0.000002 0.000012 -10.930864 0.000003 -0.000003 -0.000004 0.000007 -4.087276 -1.487652 0.000005 0.000001 0.000006 2.338572 -0.252552 -0.551480 25.000881 -1.377863 -1.618314 -0.000004 -0.000005 -10.744941 10.432648 0.343548 -0.878550 -0.000000 0.000012 -10.930839 -0.000014 -0.000002 -0.000002 0.000003 -4.087262 -1.487655 0.000001 -0.000000 0.000000 
